<?xml version="1.0" standalone="no"?>
<!DOCTYPE svg PUBLIC "-//W3C//DTD SVG 20010904//EN"
 "http://www.w3.org/TR/2001/REC-SVG-20010904/DTD/svg10.dtd">
<svg version="1.0" xmlns="http://www.w3.org/2000/svg"
 width="500.000000pt" height="500.000000pt" viewBox="0 0 500.000000 500.000000"
 preserveAspectRatio="xMidYMid meet">
<metadata>
Created by potrace 1.11, written by Peter Selinger 2001-2013
</metadata>
<g transform="translate(0.000000,500.000000) scale(0.100000,-0.100000)"
fill="#000000" stroke="none">
<path d="M150 2505 l0 -2345 2350 0 2350 0 -2 2343 -3 2342 -2347 3 -2348 2 0
-2345z m920 1189 c22 -9 46 -26 53 -38 9 -16 13 -176 17 -625 l5 -604 479 622
c264 342 491 631 504 642 30 23 91 25 131 5 15 -8 44 -33 64 -55 30 -33 37
-49 37 -82 0 -40 -18 -64 -376 -511 -206 -258 -373 -475 -371 -481 2 -7 143
-221 312 -477 501 -756 555 -840 555 -869 0 -38 -33 -86 -79 -117 -49 -32
-125 -37 -165 -11 -15 10 -207 288 -430 622 l-403 605 -131 -166 -132 -167 0
-403 c0 -237 -4 -413 -10 -428 -30 -79 -199 -98 -266 -31 l-24 24 0 1249 0
1249 23 21 c47 44 134 55 207 26z m3271 6 c67 -36 67 -214 0 -250 -13 -6 -217
-10 -585 -10 l-566 0 0 -460 0 -460 301 0 301 0 29 -31 c56 -60 35 -184 -34
-209 -18 -6 -145 -10 -313 -10 l-284 0 0 -550 c0 -389 -3 -556 -11 -574 -33
-72 -201 -85 -265 -21 l-24 24 0 1241 c0 858 3 1247 11 1261 5 11 25 29 42 39
31 19 56 20 705 20 443 0 680 -4 693 -10z"/>
</g>
</svg>
